# xmcd
#
# Track frame offsets: 
#        150
#        11171
#        24484
#        36177
#        49581
#        62123
#        75705
#        88376
#        101639
#        114664
#        127096
#        139916
#        153065
#        165715
#        178680
#        189101
#        202785
#        215077
#        229226
#        239471
#
# Disc length: 3380 seconds
#
# Revision: 1
# Processed by: cddbd v1.5.2PL0 Copyright (c) Steve Scherf et al.
# Submitted via: ExactAudioCopy v1.3
#
DISCID=150d3214
DTITLE=Various Artist - The Sun Blues Story CD3
DYEAR=2012
DGENRE=Blues
TTITLE0=Little Milton - Beggin' My Baby
TTITLE1=Jimmy and Walter - Before Long
TTITLE2=Little Junior's Blue Flames - Love My Baby
TTITLE3=Howlin' Wolf - The Wolf Is At Your Door
TTITLE4=James Cotton - Hold Me In Your Arms
TTITLE5=D.A. Hunt - Lonesome Ol' Jail
TTITLE6=B.B. King - Mistreated Woman
TTITLE7=Rosco Gordon - Wise To You Baby
TTITLE8=Doctor Ross - Country Clown
TTITLE9=Joe Hill Louis - Gotta Let You Go
TTITLE10=Lost John Hunter - Schoolboy
TTITLE11=Little Milton - Somebody Told Me
TTITLE12=Willie Nix - Seems Like A Million Years
TTITLE13=Rosco Gordon - Too Many Women
TTITLE14=Lou Sargent - Ridin' The Boogie
TTITLE15=James Cotton - Cotton Crop Blues
TTITLE16=Jimmy De Berry - Time Has Made A Change
TTITLE17=Ike Turner and The Kings Of Rhythm - Heartbroken and Worried
TTITLE18=Rufus Thomas Jr. - Walkin' In The Rain
TTITLE19=Johnny London - Drivin' Slow
EXTD=
EXTT0=
EXTT1=
EXTT2=
EXTT3=
EXTT4=
EXTT5=
EXTT6=
EXTT7=
EXTT8=
EXTT9=
EXTT10=
EXTT11=
EXTT12=
EXTT13=
EXTT14=
EXTT15=
EXTT16=
EXTT17=
EXTT18=
EXTT19=
PLAYORDER=
